<?xml version="1.0" standalone="no"?><!DOCTYPE svg PUBLIC "-//W3C//DTD SVG 1.1//EN" "http://www.w3.org/Graphics/SVG/1.1/DTD/svg11.dtd"><svg t="1576055370531" class="icon" viewBox="0 0 1024 1024" version="1.1" xmlns="http://www.w3.org/2000/svg" p-id="1859" xmlns:xlink="http://www.w3.org/1999/xlink" width="400" height="400"><defs><style type="text/css"></style></defs><path d="M814.592 229.888c-145.92 0-290.816-82.944-292.352-83.968-3.072-1.536-6.144-2.56-9.216-2.56-3.072 0-6.656 1.024-9.216 2.56-1.536 1.024-150.016 83.968-294.4 83.968-10.24 0-18.944 8.704-18.944 18.944v264.192c0 117.248 55.296 218.112 159.744 291.328 77.824 54.784 154.624 74.752 157.696 75.264 1.536 0.512 3.072 0.512 4.608 0.512 1.536 0 3.072 0 4.608-0.512 3.072-1.024 79.36-20.992 157.184-76.288 103.936-73.728 158.72-174.08 158.72-290.816v-263.68c0.512-10.24-8.192-18.944-18.432-18.944zM697.344 445.44L506.368 636.416c-5.12 5.12-11.776 7.68-18.432 7.68-7.168 0-13.824-2.56-18.432-7.68L351.232 518.144c-10.24-10.24-10.24-26.624 0.512-36.864a25.958 25.958 0 0 1 36.864 0l99.84 99.84L660.48 408.576c10.24-10.24 26.624-10.24 36.864 0.512a26.288 26.288 0 0 1 0 36.352z" fill="#333333" p-id="1860"></path></svg>